<?xml version="1.0" encoding="UTF-8"?>
<!DOCTYPE svg PUBLIC "-//W3C//DTD SVG 1.1//EN" "http://www.w3.org/Graphics/SVG/1.1/DTD/svg11.dtd">
<svg xmlns="http://www.w3.org/2000/svg" version="1.1" width="456px" height="456px" style="shape-rendering:geometricPrecision; text-rendering:geometricPrecision; image-rendering:optimizeQuality; fill-rule:evenodd; clip-rule:evenodd" xmlns:xlink="http://www.w3.org/1999/xlink">
<g><path style="opacity:0.95" fill="#fefffe" d="M 118.5,121.5 C 126.553,121.225 134.553,121.725 142.5,123C 150.232,126.279 154.732,132.112 156,140.5C 157.968,150.129 155.801,158.629 149.5,166C 155.645,171.225 158.312,177.891 157.5,186C 157.987,194.545 155.32,201.878 149.5,208C 146.624,210.437 143.29,211.77 139.5,212C 132.508,212.5 125.508,212.666 118.5,212.5C 118.5,182.167 118.5,151.833 118.5,121.5 Z M 133.5,140.5 C 138.664,140.834 141.331,143.667 141.5,149C 141.375,154.29 138.709,157.123 133.5,157.5C 133.5,151.833 133.5,146.167 133.5,140.5 Z M 133.5,176.5 C 139.207,176.371 142.207,179.205 142.5,185C 142.252,190.748 139.252,193.581 133.5,193.5C 133.5,187.833 133.5,182.167 133.5,176.5 Z"/></g>
<g><path style="opacity:0.936" fill="#fefffe" d="M 164.5,121.5 C 169.5,121.5 174.5,121.5 179.5,121.5C 179.333,144.169 179.5,166.836 180,189.5C 183,194.833 186,194.833 189,189.5C 189.5,166.836 189.667,144.169 189.5,121.5C 194.833,121.5 200.167,121.5 205.5,121.5C 205.92,146.531 205.42,171.531 204,196.5C 202.443,207.891 195.943,213.891 184.5,214.5C 174.298,214.463 168.131,209.463 166,199.5C 164.556,173.538 164.056,147.538 164.5,121.5 Z"/></g>
<g><path style="opacity:0.932" fill="#fefffe" d="M 210.5,121.5 C 216.167,121.5 221.833,121.5 227.5,121.5C 229.506,130.523 231.672,139.523 234,148.5C 236.333,139.833 238.667,131.167 241,122.5C 246.779,121.193 252.612,121.193 258.5,122.5C 252.901,138.796 247.401,155.13 242,171.5C 241.5,185.163 241.333,198.829 241.5,212.5C 236.5,212.5 231.5,212.5 226.5,212.5C 226.667,198.163 226.5,183.829 226,169.5C 220.525,153.574 215.358,137.574 210.5,121.5 Z"/></g>
<g><path style="opacity:0.962" fill="#fefffe" d="M 281.5,122.5 C 297.275,126.027 312.941,130.027 328.5,134.5C 329.665,143.816 329.832,153.149 329,162.5C 320.199,168.144 311.699,174.144 303.5,180.5C 311.838,186.662 320.338,192.662 329,198.5C 329.832,207.518 329.665,216.518 328.5,225.5C 312.864,229.992 297.197,234.325 281.5,238.5C 281.169,231.137 281.503,223.803 282.5,216.5C 292.613,213.806 302.613,210.806 312.5,207.5C 302.537,200.513 292.537,193.513 282.5,186.5C 281.167,182.5 281.167,178.5 282.5,174.5C 292.833,167.333 303.167,160.167 313.5,153C 303.216,150.012 292.883,147.179 282.5,144.5C 281.503,137.197 281.169,129.863 281.5,122.5 Z"/></g>
<g><path style="opacity:0.93" fill="#fefffe" d="M 185.5,236.5 C 197.191,235.093 205.357,239.76 210,250.5C 215.589,265.363 215.922,280.363 211,295.5C 205.192,309.989 195.025,314.489 180.5,309C 173.557,302.282 169.391,294.115 168,284.5C 165.42,269.736 168.086,256.07 176,243.5C 178.825,240.524 181.992,238.191 185.5,236.5 Z M 188.5,251.5 C 195.916,252.076 200.416,256.076 202,263.5C 204.54,273.224 203.54,282.558 199,291.5C 193.667,298.167 188.333,298.167 183,291.5C 177,279.833 177,268.167 183,256.5C 184.73,254.598 186.563,252.931 188.5,251.5 Z"/></g>
<g><path style="opacity:0.949" fill="#fefffe" d="M 119.5,237.5 C 123.226,237.177 126.893,237.511 130.5,238.5C 137,252.833 143.5,267.167 150,281.5C 150.5,266.837 150.667,252.17 150.5,237.5C 153.833,237.5 157.167,237.5 160.5,237.5C 160.5,261.833 160.5,286.167 160.5,310.5C 156.894,310.789 153.394,310.456 150,309.5C 143.667,295.5 137.333,281.5 131,267.5C 130.5,281.829 130.333,296.163 130.5,310.5C 126.833,310.5 123.167,310.5 119.5,310.5C 119.5,286.167 119.5,261.833 119.5,237.5 Z"/></g>
<g><path style="opacity:0.912" fill="#fefffe" d="M 218.5,237.5 C 221.833,237.5 225.167,237.5 228.5,237.5C 230.245,252.882 232.412,268.215 235,283.5C 237.333,268.5 239.667,253.5 242,238.5C 244.381,237.565 246.881,237.232 249.5,237.5C 251.584,252.589 254.084,267.589 257,282.5C 259.308,267.511 261.475,252.511 263.5,237.5C 266.833,237.5 270.167,237.5 273.5,237.5C 269.74,261.816 266.074,286.15 262.5,310.5C 258.894,310.789 255.394,310.456 252,309.5C 250.093,296.486 248.093,283.486 246,270.5C 243.601,283.795 241.434,297.128 239.5,310.5C 235.894,310.789 232.394,310.456 229,309.5C 225.265,285.525 221.765,261.525 218.5,237.5 Z"/></g>
<g><path style="opacity:0.962" fill="#fefffe" d="M 281.5,253.5 C 297.5,253.5 313.5,253.5 329.5,253.5C 329.5,272.833 329.5,292.167 329.5,311.5C 326.167,311.5 322.833,311.5 319.5,311.5C 319.5,299.833 319.5,288.167 319.5,276.5C 316.5,276.5 313.5,276.5 310.5,276.5C 310.5,288.167 310.5,299.833 310.5,311.5C 307.167,311.5 303.833,311.5 300.5,311.5C 300.5,299.833 300.5,288.167 300.5,276.5C 297.833,276.5 295.167,276.5 292.5,276.5C 292.5,288.167 292.5,299.833 292.5,311.5C 288.833,311.5 285.167,311.5 281.5,311.5C 281.5,292.167 281.5,272.833 281.5,253.5 Z"/></g>
</svg>
