<?xml version="1.0" encoding="UTF-8"?>
<!DOCTYPE svg PUBLIC "-//W3C//DTD SVG 1.1//EN" "http://www.w3.org/Graphics/SVG/1.1/DTD/svg11.dtd">
<svg xmlns="http://www.w3.org/2000/svg" version="1.1" width="456px" height="456px" style="shape-rendering:geometricPrecision; text-rendering:geometricPrecision; image-rendering:optimizeQuality; fill-rule:evenodd; clip-rule:evenodd" xmlns:xlink="http://www.w3.org/1999/xlink">
<g><path style="opacity:1" fill="#289ad5" d="M -0.5,-0.5 C 5.83333,-0.5 12.1667,-0.5 18.5,-0.5C 12.5,6.16667 6.16667,12.5 -0.5,18.5C -0.5,12.1667 -0.5,5.83333 -0.5,-0.5 Z"/></g>
<g><path style="opacity:1" fill="#2797d1" d="M 18.5,-0.5 C 30.1667,-0.5 41.8333,-0.5 53.5,-0.5C 35.8333,17.8333 17.8333,35.8333 -0.5,53.5C -0.5,41.8333 -0.5,30.1667 -0.5,18.5C 6.16667,12.5 12.5,6.16667 18.5,-0.5 Z"/></g>
<g><path style="opacity:1" fill="#2793cb" d="M 53.5,-0.5 C 68.5,-0.5 83.5,-0.5 98.5,-0.5C 65.8333,32.8333 32.8333,65.8333 -0.5,98.5C -0.5,83.5 -0.5,68.5 -0.5,53.5C 17.8333,35.8333 35.8333,17.8333 53.5,-0.5 Z"/></g>
<g><path style="opacity:1" fill="#2790c7" d="M 98.5,-0.5 C 100.833,-0.5 103.167,-0.5 105.5,-0.5C 70.5,35.1667 35.1667,70.5 -0.5,105.5C -0.5,103.167 -0.5,100.833 -0.5,98.5C 32.8333,65.8333 65.8333,32.8333 98.5,-0.5 Z"/></g>
<g><path style="opacity:1" fill="#278dc4" d="M 105.5,-0.5 C 118.5,-0.5 131.5,-0.5 144.5,-0.5C 96.5,48.1667 48.1667,96.5 -0.5,144.5C -0.5,131.5 -0.5,118.5 -0.5,105.5C 35.1667,70.5 70.5,35.1667 105.5,-0.5 Z"/></g>
<g><path style="opacity:1" fill="#268abf" d="M 144.5,-0.5 C 151.5,-0.5 158.5,-0.5 165.5,-0.5C 110.5,55.1667 55.1667,110.5 -0.5,165.5C -0.5,158.5 -0.5,151.5 -0.5,144.5C 48.1667,96.5 96.5,48.1667 144.5,-0.5 Z"/></g>
<g><path style="opacity:1" fill="#2788bc" d="M 165.5,-0.5 C 170.167,-0.5 174.833,-0.5 179.5,-0.5C 119.833,59.8333 59.8333,119.833 -0.5,179.5C -0.5,174.833 -0.5,170.167 -0.5,165.5C 55.1667,110.5 110.5,55.1667 165.5,-0.5 Z"/></g>
<g><path style="opacity:1" fill="#2685b8" d="M 179.5,-0.5 C 193.5,-0.5 207.5,-0.5 221.5,-0.5C 147.833,73.8333 73.8333,147.833 -0.5,221.5C -0.5,207.5 -0.5,193.5 -0.5,179.5C 59.8333,119.833 119.833,59.8333 179.5,-0.5 Z"/></g>
<g><path style="opacity:1" fill="#2681b2" d="M 221.5,-0.5 C 235.5,-0.5 249.5,-0.5 263.5,-0.5C 175.833,87.8333 87.8333,175.833 -0.5,263.5C -0.5,249.5 -0.5,235.5 -0.5,221.5C 73.8333,147.833 147.833,73.8333 221.5,-0.5 Z"/></g>
<g><path style="opacity:1" fill="#257faf" d="M 263.5,-0.5 C 265.833,-0.5 268.167,-0.5 270.5,-0.5C 180.5,90.1667 90.1667,180.5 -0.5,270.5C -0.5,268.167 -0.5,265.833 -0.5,263.5C 87.8333,175.833 175.833,87.8333 263.5,-0.5 Z"/></g>
<g><path style="opacity:1" fill="#267eae" d="M 270.5,-0.5 C 271.5,-0.5 272.5,-0.5 273.5,-0.5C 182.5,91.1667 91.1667,182.5 -0.5,273.5C -0.5,272.5 -0.5,271.5 -0.5,270.5C 90.1667,180.5 180.5,90.1667 270.5,-0.5 Z"/></g>
<g><path style="opacity:1" fill="#247dac" d="M 273.5,-0.5 C 277.167,-0.5 280.833,-0.5 284.5,-0.5C 189.833,94.8333 94.8333,189.833 -0.5,284.5C -0.5,280.833 -0.5,277.167 -0.5,273.5C 91.1667,182.5 182.5,91.1667 273.5,-0.5 Z"/></g>
<g><path style="opacity:1" fill="#267dac" d="M 284.5,-0.5 C 285.5,-0.5 286.5,-0.5 287.5,-0.5C 191.833,95.8333 95.8333,191.833 -0.5,287.5C -0.5,286.5 -0.5,285.5 -0.5,284.5C 94.8333,189.833 189.833,94.8333 284.5,-0.5 Z"/></g>
<g><path style="opacity:1" fill="#247dac" d="M 287.5,-0.5 C 288.833,-0.5 290.167,-0.5 291.5,-0.5C 194.5,97.1667 97.1667,194.5 -0.5,291.5C -0.5,290.167 -0.5,288.833 -0.5,287.5C 95.8333,191.833 191.833,95.8333 287.5,-0.5 Z"/></g>
<g><path style="opacity:1" fill="#237ba9" d="M 291.5,-0.5 C 298.5,-0.5 305.5,-0.5 312.5,-0.5C 208.5,104.167 104.167,208.5 -0.5,312.5C -0.5,305.5 -0.5,298.5 -0.5,291.5C 97.1667,194.5 194.5,97.1667 291.5,-0.5 Z"/></g>
<g><path style="opacity:1" fill="#2278a5" d="M 312.5,-0.5 C 326.5,-0.5 340.5,-0.5 354.5,-0.5C 236.5,118.167 118.167,236.5 -0.5,354.5C -0.5,340.5 -0.5,326.5 -0.5,312.5C 104.167,208.5 208.5,104.167 312.5,-0.5 Z"/></g>
<g><path style="opacity:1" fill="#2176a3" d="M 354.5,-0.5 C 355.5,-0.5 356.5,-0.5 357.5,-0.5C 238.5,119.167 119.167,238.5 -0.5,357.5C -0.5,356.5 -0.5,355.5 -0.5,354.5C 118.167,236.5 236.5,118.167 354.5,-0.5 Z"/></g>
<g><path style="opacity:1" fill="#2074a0" d="M 357.5,-0.5 C 369.167,-0.5 380.833,-0.5 392.5,-0.5C 261.833,130.833 130.833,261.833 -0.5,392.5C -0.5,380.833 -0.5,369.167 -0.5,357.5C 119.167,238.5 238.5,119.167 357.5,-0.5 Z"/></g>
<g><path style="opacity:1" fill="#1f729e" d="M 392.5,-0.5 C 394.833,-0.5 397.167,-0.5 399.5,-0.5C 266.5,133.167 133.167,266.5 -0.5,399.5C -0.5,397.167 -0.5,394.833 -0.5,392.5C 130.833,261.833 261.833,130.833 392.5,-0.5 Z"/></g>
<g><path style="opacity:1" fill="#20729e" d="M 399.5,-0.5 C 401.833,-0.5 404.167,-0.5 406.5,-0.5C 271.167,135.5 135.5,271.167 -0.5,406.5C -0.5,404.167 -0.5,401.833 -0.5,399.5C 133.167,266.5 266.5,133.167 399.5,-0.5 Z"/></g>
<g><path style="opacity:1" fill="#1f719c" d="M 406.5,-0.5 C 408.833,-0.5 411.167,-0.5 413.5,-0.5C 275.833,137.833 137.833,275.833 -0.5,413.5C -0.5,411.167 -0.5,408.833 -0.5,406.5C 135.5,271.167 271.167,135.5 406.5,-0.5 Z"/></g>
<g><path style="opacity:1" fill="#1f709c" d="M 413.5,-0.5 C 414.5,-0.5 415.5,-0.5 416.5,-0.5C 277.833,138.833 138.833,277.833 -0.5,416.5C -0.5,415.5 -0.5,414.5 -0.5,413.5C 137.833,275.833 275.833,137.833 413.5,-0.5 Z"/></g>
<g><path style="opacity:1" fill="#20709c" d="M 416.5,-0.5 C 417.833,-0.5 419.167,-0.5 420.5,-0.5C 280.5,140.167 140.167,280.5 -0.5,420.5C -0.5,419.167 -0.5,417.833 -0.5,416.5C 138.833,277.833 277.833,138.833 416.5,-0.5 Z"/></g>
<g><path style="opacity:1" fill="#1d6d98" d="M 420.5,-0.5 C 432.167,-0.5 443.833,-0.5 455.5,-0.5C 455.5,4.5 455.5,9.5 455.5,14.5C 308.167,161.167 161.167,308.167 14.5,455.5C 9.5,455.5 4.5,455.5 -0.5,455.5C -0.5,443.833 -0.5,432.167 -0.5,420.5C 140.167,280.5 280.5,140.167 420.5,-0.5 Z"/></g>
<g><path style="opacity:1" fill="#1b6b94" d="M 455.5,14.5 C 455.5,16.8333 455.5,19.1667 455.5,21.5C 310.5,165.833 165.833,310.5 21.5,455.5C 19.1667,455.5 16.8333,455.5 14.5,455.5C 161.167,308.167 308.167,161.167 455.5,14.5 Z"/></g>
<g><path style="opacity:1" fill="#1a6891" d="M 455.5,21.5 C 455.5,36.5 455.5,51.5 455.5,66.5C 325.5,195.833 195.833,325.5 66.5,455.5C 51.5,455.5 36.5,455.5 21.5,455.5C 165.833,310.5 310.5,165.833 455.5,21.5 Z"/></g>
<g><path style="opacity:1" fill="#19658d" d="M 455.5,66.5 C 455.5,79.5 455.5,92.5 455.5,105.5C 338.5,221.833 221.833,338.5 105.5,455.5C 92.5,455.5 79.5,455.5 66.5,455.5C 195.833,325.5 325.5,195.833 455.5,66.5 Z"/></g>
<g><path style="opacity:1" fill="#19628a" d="M 455.5,105.5 C 455.5,111.167 455.5,116.833 455.5,122.5C 344.167,233.167 233.167,344.167 122.5,455.5C 116.833,455.5 111.167,455.5 105.5,455.5C 221.833,338.5 338.5,221.833 455.5,105.5 Z"/></g>
<g><path style="opacity:1" fill="#196189" d="M 455.5,122.5 C 455.5,126.167 455.5,129.833 455.5,133.5C 347.833,240.5 240.5,347.833 133.5,455.5C 129.833,455.5 126.167,455.5 122.5,455.5C 233.167,344.167 344.167,233.167 455.5,122.5 Z"/></g>
<g><path style="opacity:1" fill="#186188" d="M 455.5,133.5 C 455.5,134.5 455.5,135.5 455.5,136.5C 348.833,242.5 242.5,348.833 136.5,455.5C 135.5,455.5 134.5,455.5 133.5,455.5C 240.5,347.833 347.833,240.5 455.5,133.5 Z"/></g>
<g><path style="opacity:1" fill="#196087" d="M 455.5,136.5 C 455.5,140.167 455.5,143.833 455.5,147.5C 352.5,249.833 249.833,352.5 147.5,455.5C 143.833,455.5 140.167,455.5 136.5,455.5C 242.5,348.833 348.833,242.5 455.5,136.5 Z"/></g>
<g><path style="opacity:1" fill="#186087" d="M 455.5,147.5 C 455.5,148.5 455.5,149.5 455.5,150.5C 353.5,251.833 251.833,353.5 150.5,455.5C 149.5,455.5 148.5,455.5 147.5,455.5C 249.833,352.5 352.5,249.833 455.5,147.5 Z"/></g>
<g><path style="opacity:1" fill="#195e85" d="M 455.5,150.5 C 455.5,158.833 455.5,167.167 455.5,175.5C 361.833,268.5 268.5,361.833 175.5,455.5C 167.167,455.5 158.833,455.5 150.5,455.5C 251.833,353.5 353.5,251.833 455.5,150.5 Z"/></g>
<g><path style="opacity:1" fill="#185e84" d="M 455.5,175.5 C 455.5,176.5 455.5,177.5 455.5,178.5C 362.833,270.5 270.5,362.833 178.5,455.5C 177.5,455.5 176.5,455.5 175.5,455.5C 268.5,361.833 361.833,268.5 455.5,175.5 Z"/></g>
<g><path style="opacity:1" fill="#185d83" d="M 455.5,178.5 C 455.5,179.833 455.5,181.167 455.5,182.5C 364.167,273.167 273.167,364.167 182.5,455.5C 181.167,455.5 179.833,455.5 178.5,455.5C 270.5,362.833 362.833,270.5 455.5,178.5 Z"/></g>
<g><path style="opacity:1" fill="#195d83" d="M 455.5,182.5 C 455.5,183.5 455.5,184.5 455.5,185.5C 365.167,275.167 275.167,365.167 185.5,455.5C 184.5,455.5 183.5,455.5 182.5,455.5C 273.167,364.167 364.167,273.167 455.5,182.5 Z"/></g>
<g><path style="opacity:1" fill="#165a7f" d="M 455.5,185.5 C 455.5,207.833 455.5,230.167 455.5,252.5C 387.5,319.833 319.833,387.5 252.5,455.5C 230.167,455.5 207.833,455.5 185.5,455.5C 275.167,365.167 365.167,275.167 455.5,185.5 Z"/></g>
<g><path style="opacity:1" fill="#14557a" d="M 455.5,252.5 C 455.5,269.833 455.5,287.167 455.5,304.5C 404.833,354.5 354.5,404.833 304.5,455.5C 287.167,455.5 269.833,455.5 252.5,455.5C 319.833,387.5 387.5,319.833 455.5,252.5 Z"/></g>
<g><path style="opacity:1" fill="#125277" d="M 455.5,304.5 C 455.5,308.167 455.5,311.833 455.5,315.5C 408.5,361.833 361.833,408.5 315.5,455.5C 311.833,455.5 308.167,455.5 304.5,455.5C 354.5,404.833 404.833,354.5 455.5,304.5 Z"/></g>
<g><path style="opacity:1" fill="#115275" d="M 455.5,315.5 C 455.5,320.167 455.5,324.833 455.5,329.5C 413.167,371.167 371.167,413.167 329.5,455.5C 324.833,455.5 320.167,455.5 315.5,455.5C 361.833,408.5 408.5,361.833 455.5,315.5 Z"/></g>
<g><path style="opacity:1" fill="#0f5073" d="M 455.5,329.5 C 455.5,343.5 455.5,357.5 455.5,371.5C 427.167,399.167 399.167,427.167 371.5,455.5C 357.5,455.5 343.5,455.5 329.5,455.5C 371.167,413.167 413.167,371.167 455.5,329.5 Z"/></g>
<g><path style="opacity:1" fill="#0c4e71" d="M 455.5,371.5 C 455.5,374.833 455.5,378.167 455.5,381.5C 430.5,405.833 405.833,430.5 381.5,455.5C 378.167,455.5 374.833,455.5 371.5,455.5C 399.167,427.167 427.167,399.167 455.5,371.5 Z"/></g>
<g><path style="opacity:1" fill="#0d4d70" d="M 455.5,381.5 C 455.5,382.833 455.5,384.167 455.5,385.5C 431.833,408.5 408.5,431.833 385.5,455.5C 384.167,455.5 382.833,455.5 381.5,455.5C 405.833,430.5 430.5,405.833 455.5,381.5 Z"/></g>
<g><path style="opacity:1" fill="#0a4b6e" d="M 455.5,385.5 C 455.5,397.167 455.5,408.833 455.5,420.5C 443.5,431.833 431.833,443.5 420.5,455.5C 408.833,455.5 397.167,455.5 385.5,455.5C 408.5,431.833 431.833,408.5 455.5,385.5 Z"/></g>
<g><path style="opacity:1" fill="#07496b" d="M 455.5,420.5 C 455.5,432.167 455.5,443.833 455.5,455.5C 443.833,455.5 432.167,455.5 420.5,455.5C 431.833,443.5 443.5,431.833 455.5,420.5 Z"/></g>
</svg>
